<svg id="Calque_1" data-name="Calque 1" xmlns="http://www.w3.org/2000/svg" viewBox="0 0 324.56 108.67"><defs><style>.cls-1{fill:#234164;}.cls-2{fill:#dc0014;}.cls-3{fill:#c31a1b;}</style></defs><path class="cls-1" d="M284.62,328.1h1.93v18.21h-1.93Z" transform="translate(-262.79 -242.81)"/><path class="cls-1" d="M304.83,327v19.3h-1.77V343.6a5.93,5.93,0,0,1-5.28,2.84,7,7,0,0,1,0-13.92,6,6,0,0,1,5.2,2.71V327ZM303,339.47a5.09,5.09,0,1,0-5.07,5.33A5,5,0,0,0,303,339.47Z" transform="translate(-262.79 -242.81)"/><path class="cls-1" d="M322.14,340H310.7a5.06,5.06,0,0,0,5.38,4.76,5.38,5.38,0,0,0,4.19-1.8l1,1.2a7.22,7.22,0,0,1-12.45-4.73,6.59,6.59,0,0,1,6.68-7c3.85,0,6.63,2.84,6.63,7C322.17,339.62,322.14,339.83,322.14,340Zm-11.44-1.38h9.7a4.86,4.86,0,0,0-9.7,0Z" transform="translate(-262.79 -242.81)"/><path class="cls-1" d="M338.78,338.38v7.93h-1.84v-7.75c0-2.89-1.51-4.37-4.11-4.37-2.94,0-4.79,1.82-4.79,4.94v7.18H326.2V332.63H328v2.52a5.74,5.74,0,0,1,5.2-2.63C336.49,332.52,338.78,334.45,338.78,338.38Z" transform="translate(-262.79 -242.81)"/><path class="cls-1" d="M351.26,345.47a4.4,4.4,0,0,1-2.88,1c-2.58,0-4-1.46-4-4v-8.27h-2.44v-1.56h2.44v-3h1.85v3h4.16v1.56h-4.16v8.16a2.19,2.19,0,0,0,2.36,2.5,3,3,0,0,0,2-.7Z" transform="translate(-262.79 -242.81)"/><path class="cls-1" d="M354.46,328.31a1.33,1.33,0,0,1,1.35-1.3,1.31,1.31,0,0,1,1.35,1.28,1.33,1.33,0,0,1-1.35,1.35A1.34,1.34,0,0,1,354.46,328.31Zm.41,4.32h1.85v13.68h-1.85Z" transform="translate(-262.79 -242.81)"/><path class="cls-1" d="M364.23,331v1.61h4.22v1.56h-4.16v12.12h-1.85V334.19H360v-1.56h2.44v-1.69a3.77,3.77,0,0,1,4.13-4.06,4.32,4.32,0,0,1,2.73.86l-.62,1.38a3.15,3.15,0,0,0-2-.68C365.07,328.44,364.23,329.33,364.23,331Z" transform="translate(-262.79 -242.81)"/><path class="cls-1" d="M383,332.63l-6.83,15.31c-1.15,2.68-2.6,3.54-4.55,3.54a4.68,4.68,0,0,1-3.33-1.25l.86-1.38a3.37,3.37,0,0,0,2.49,1c1.22,0,2.06-.57,2.84-2.28l.6-1.33-6.12-13.65h1.93L376,344.25l5.14-11.62Z" transform="translate(-262.79 -242.81)"/><path class="cls-1" d="M413,332.63l-5.18,13.68H406l-4.31-11.21-4.32,11.21h-1.74l-5.15-13.68h1.77l4.29,11.62L401,332.63h1.59l4.37,11.62,4.34-11.62Z" transform="translate(-262.79 -242.81)"/><path class="cls-1" d="M428.58,338.38v7.93h-1.84v-7.75c0-2.89-1.51-4.37-4.11-4.37-2.94,0-4.79,1.82-4.79,4.94v7.18H416V327h1.84v8a5.79,5.79,0,0,1,5.13-2.5C426.29,332.52,428.58,334.45,428.58,338.38Z" transform="translate(-262.79 -242.81)"/><path class="cls-1" d="M443.18,337.83v8.48h-1.76v-2.14a5.15,5.15,0,0,1-4.71,2.27c-3.1,0-5-1.62-5-4,0-2.11,1.35-3.88,5.27-3.88h4.35v-.83c0-2.34-1.33-3.61-3.88-3.61a7,7,0,0,0-4.55,1.61l-.83-1.38a8.7,8.7,0,0,1,5.57-1.85C441.18,332.52,443.18,334.29,443.18,337.83Zm-1.84,4.37V340h-4.29c-2.65,0-3.51,1-3.51,2.45,0,1.58,1.27,2.57,3.45,2.57A4.39,4.39,0,0,0,441.34,342.2Z" transform="translate(-262.79 -242.81)"/><path class="cls-1" d="M455.66,345.47a4.38,4.38,0,0,1-2.88,1c-2.58,0-4-1.46-4-4v-8.27h-2.44v-1.56h2.44v-3h1.85v3h4.16v1.56h-4.16v8.16a2.19,2.19,0,0,0,2.37,2.5,3,3,0,0,0,2-.7Z" transform="translate(-262.79 -242.81)"/><path class="cls-1" d="M489.92,338.38v7.93h-1.85v-7.75c0-2.89-1.46-4.37-3.93-4.37-2.8,0-4.57,1.82-4.57,4.94v7.18h-1.85v-7.75c0-2.89-1.45-4.37-4-4.37-2.78,0-4.58,1.82-4.58,4.94v7.18h-1.84V332.63h1.76v2.5a5.55,5.55,0,0,1,5-2.61,4.93,4.93,0,0,1,4.87,2.89,5.93,5.93,0,0,1,5.4-2.89C487.73,332.52,489.92,334.45,489.92,338.38Z" transform="translate(-262.79 -242.81)"/><path class="cls-1" d="M505.52,337.83v8.48h-1.77v-2.14a5.13,5.13,0,0,1-4.71,2.27c-3.09,0-5-1.62-5-4,0-2.11,1.35-3.88,5.28-3.88h4.34v-.83c0-2.34-1.33-3.61-3.87-3.61a6.94,6.94,0,0,0-4.55,1.61l-.84-1.38a8.7,8.7,0,0,1,5.57-1.85C503.51,332.52,505.52,334.29,505.52,337.83Zm-1.85,4.37V340h-4.29c-2.65,0-3.51,1-3.51,2.45,0,1.58,1.27,2.57,3.46,2.57A4.38,4.38,0,0,0,503.67,342.2Z" transform="translate(-262.79 -242.81)"/><path class="cls-1" d="M518,345.47a4.41,4.41,0,0,1-2.89,1,3.62,3.62,0,0,1-4-4v-8.27h-2.45v-1.56h2.45v-3H513v3h4.16v1.56H513v8.16a2.19,2.19,0,0,0,2.37,2.5,3.06,3.06,0,0,0,2-.7Z" transform="translate(-262.79 -242.81)"/><path class="cls-1" d="M528.45,345.47a4.41,4.41,0,0,1-2.89,1,3.62,3.62,0,0,1-4-4v-8.27h-2.45v-1.56h2.45v-3h1.84v3h4.16v1.56H523.4v8.16a2.2,2.2,0,0,0,2.37,2.5,3.06,3.06,0,0,0,2-.7Z" transform="translate(-262.79 -242.81)"/><path class="cls-1" d="M543.48,340H532a5.06,5.06,0,0,0,5.38,4.76,5.38,5.38,0,0,0,4.18-1.8l1,1.2a7.22,7.22,0,0,1-12.45-4.73,6.59,6.59,0,0,1,6.68-7c3.85,0,6.63,2.84,6.63,7C543.5,339.62,543.48,339.83,543.48,340ZM532,338.66h9.69a4.85,4.85,0,0,0-9.69,0Z" transform="translate(-262.79 -242.81)"/><path class="cls-1" d="M554.42,332.52v1.8c-.15,0-.31,0-.44,0-2.86,0-4.6,1.82-4.6,5v7h-1.85V332.63h1.77v2.68C550.16,333.49,551.9,332.52,554.42,332.52Z" transform="translate(-262.79 -242.81)"/><path class="cls-1" d="M556.22,344.75l.83-1.46a8.24,8.24,0,0,0,4.86,1.53c2.6,0,3.67-.88,3.67-2.23,0-3.56-8.87-.76-8.87-6.17,0-2.23,1.92-3.9,5.41-3.9A9.23,9.23,0,0,1,567,333.8l-.8,1.48a7,7,0,0,0-4-1.17c-2.47,0-3.57,1-3.57,2.26,0,3.7,8.87.91,8.87,6.17,0,2.36-2.08,3.9-5.64,3.9A9.12,9.12,0,0,1,556.22,344.75Z" transform="translate(-262.79 -242.81)"/><path class="cls-2" d="M379.33,253.56c-1.78,6.53-5.66,15.22-9.73,23.34q-3.21,6.39-6.68,12.64c-1.42,2.59-2.94,5.14-4.4,7.69a2.21,2.21,0,0,1-4.21-.34c-.44-.74-.9-1.52-1.34-2.29-1.94-3.34-3.82-6.73-5.65-10.14-5.07-9.47-11.27-22.18-13.64-30.9a7.49,7.49,0,0,0-8.36-6.17c1,13.36,8,25.57,13.76,37.41.94,1.81,1.82,3.45,2.75,5.17,2,3.7,4.07,7.34,6.21,10.94,1.83,3.67,4.56,5.95,8.44,5.95h0c3.88,0,6.61-2.28,8.44-5.95,3.45-5.83,6.7-11.71,9.82-17.77,5.44-11.32,12-23,12.9-35.75h-.23A7.43,7.43,0,0,0,379.33,253.56Z" transform="translate(-262.79 -242.81)"/><path class="cls-2" d="M291.5,246c-23.77,1.23-36.94,28.89-23,48.15,8.42,12.21,24.53,15.73,37.26,10.19a29.09,29.09,0,0,0,11.58-9.05c-4.57-4.7-9.84-.49-14.13,2.12a24.63,24.63,0,0,1-11.33,2.31,20.64,20.64,0,0,1-14.47-6.5l-.52-.53a2,2,0,0,1,.72-3.35c.21-.12,37.17-15.15,37.41-15.26a8.84,8.84,0,0,0,4.38-13.43A30.7,30.7,0,0,0,291.5,246Zm21.66,20a2,2,0,0,1-1.29,1.4l-38.18,15.52a2.15,2.15,0,0,1-2.87-1.09v0h0c-4.69-20.23,17.64-35.92,35.09-24.63a22.51,22.51,0,0,1,6.94,7.1A2,2,0,0,1,313.16,265.94Z" transform="translate(-262.79 -242.81)"/><path class="cls-2" d="M506.52,298.92a7.37,7.37,0,0,0-3.46-.95H478.28a2,2,0,0,1-1.94-1.9s0-41.25,0-41.3a7.4,7.4,0,0,0-7.4-7.4h0v49.24a8.82,8.82,0,0,0,8.76,8.78h32.6v0A7.4,7.4,0,0,0,506.52,298.92Z" transform="translate(-262.79 -242.81)"/><path class="cls-3" d="M528.39,247.37h0Z" transform="translate(-262.79 -242.81)"/><path class="cls-2" d="M528.61,247.37a7.4,7.4,0,0,0-7.36,7.32s0,.05,0,.08,0,0,0,.08v50.52h7.43v-58h-.07Z" transform="translate(-262.79 -242.81)"/><path class="cls-3" d="M392.69,271v0a.17.17,0,0,1,0-.07S392.7,271,392.69,271Z" transform="translate(-262.79 -242.81)"/><path class="cls-1" d="M421.71,260.47a24.89,24.89,0,0,1,9.34,1.25c10.11,2.64,15.33-12.86,5.6-16.87a32.86,32.86,0,0,0-39.77,47.43,30.64,30.64,0,0,0,2.44,3.56c.56.71,1.14,1.41,1.76,2.08,4.12-4.15-.13-9.25-.2-14.05A22.15,22.15,0,0,1,421.71,260.47Z" transform="translate(-262.79 -242.81)"/><path class="cls-2" d="M457.5,280.69h0a.19.19,0,0,0,0,.08A.31.31,0,0,1,457.5,280.69Z" transform="translate(-262.79 -242.81)"/><path class="cls-2" d="M453.65,259.36a34.47,34.47,0,0,0-2.38-3.6h0c-.55-.73-1.12-1.43-1.72-2.11-4.19,4.09,0,9.25,0,14a22.16,22.16,0,0,1-21.19,23.08,23.67,23.67,0,0,1-9.35-1.45,8.85,8.85,0,0,0-10.17,5,9,9,0,0,0,4.34,11.86A32.87,32.87,0,0,0,453,292.78c-.11.18,1.22-2.14,1.2-2.1a32.54,32.54,0,0,0,3.28-10A33.09,33.09,0,0,0,453.65,259.36Z" transform="translate(-262.79 -242.81)"/><path class="cls-2" d="M586.44,285.18c-2.17-5.37-6.54-11.7-21.24-13H565c-5.18-.47-11.9-2-14.9-6.67a6.33,6.33,0,0,1-.79-3.76s0-.37.06-.42c.43-2.63,2.82-5,4.36-6,3.92-2.74,12.43-2.42,15.59-1.52a19,19,0,0,1,3.66,1.19,7.42,7.42,0,0,0,8.28-.7,7.94,7.94,0,0,0,1.19-1.2l0-.07h0a24.64,24.64,0,0,0-10.06-5.66c-4.35-1.37-14-2.13-19.59.21-6.34,2.67-10,6.69-10.81,12,0,.07,0,.13,0,.2-.33,3,.21,7.18,1.86,9.69,3.61,5.49,10,8.85,19.18,9.91l1.47.15c12.06,1,13.9,5.61,15,8.34a8,8,0,0,1-.69,6.34c-2.87,4.36-8.72,5.05-13.56,5.08-5.84,0-11.59-1.74-15.39-4.57a7.52,7.52,0,0,0-8.37-1.32,7.12,7.12,0,0,0-1.79,1.23c.34.56.69,1.1,1.08,1.62A25.27,25.27,0,0,0,551.07,304a36.18,36.18,0,0,0,14.08,2.85c6,0,11-1.17,14.66-3.5,4.84-2.29,8.18-9.47,7.44-14.63A13,13,0,0,0,586.44,285.18Z" transform="translate(-262.79 -242.81)"/></svg>